<svg xmlns="http://www.w3.org/2000/svg" width="172" height="65" fill="none" viewBox="0 0 172 65">
    <circle cx="32.375" cy="32.375" r="29.529" fill="url(#a)"/>
    <circle cx="32.375" cy="32.375" r="31.875" stroke="url(#b)"/>
    <path fill="url(#c)" d="M41.29 31.596c1.342-.101 2.52-.6 3.506-1.49 3.392-3.058 3.29-9.872 3.283-10.16-.01-.536-.505-.965-1.11-.966l-5.59-.003v-2.081c0-.272-.248-.492-.555-.492H23.926c-.307 0-.556.22-.556.492v2.081l-5.588.003c-.606 0-1.1.43-1.111.966-.006.288-.11 7.102 3.283 10.16.987.89 2.165 1.389 3.506 1.49.514 3.18 3.206 5.745 6.692 6.472v6.19h-2.817a.58.58 0 0 0-.456.211l-2.445 3.104a.445.445 0 0 0-.037.509.569.569 0 0 0 .493.264h14.973c.307 0 .556-.22.556-.492 0-.119-.056-.216-.127-.313l-2.421-3.072a.58.58 0 0 0-.456-.21h-2.816v-6.191c3.486-.727 6.177-3.292 6.69-6.471zm4.549-10.649c-.108 2.177-.689 6.032-2.63 7.78a3.437 3.437 0 0 1-1.829.877v-8.66l4.459.003zm-26.926 0l4.457-.002v8.66a3.436 3.436 0 0 1-1.828-.876c-1.937-1.744-2.52-5.602-2.63-7.782zm8.856 3.667l3.183-.41 1.423-2.552 1.424 2.552 3.182.41-2.303 1.986.544 2.805-2.847-1.324-2.846 1.324.543-2.805-2.303-1.986z"/>
    <circle cx="87.314" cy="32.375" r="29.529" fill="url(#d)"/>
    <circle cx="87.314" cy="32.375" r="31.875" stroke="url(#e)"/>
    <path fill="url(#f)" d="M98.066 23.247a6.69 6.69 0 0 0-9.463 0l-1.29 1.29-1.289-1.29a6.692 6.692 0 1 0-9.463 9.464L77.85 34l9.463 9.463L96.776 34l1.29-1.29a6.69 6.69 0 0 0 0-9.463z"/>
    <circle cx="139.625" cy="32.375" r="29.529" fill="url(#g)"/>
    <circle cx="139.625" cy="32.375" r="31.875" stroke="url(#h)"/>
    <defs>
        <linearGradient id="a" x1="2.858" x2="61.916" y1="61.916" y2="61.916" gradientUnits="userSpaceOnUse">
            <stop stop-color="#00205B"/>
            <stop offset="1" stop-color="#84358E"/>
        </linearGradient>
        <linearGradient id="b" x2="64.75" y1="64.75" y2="64.75" gradientUnits="userSpaceOnUse">
            <stop stop-color="#00205B"/>
            <stop offset="1" stop-color="#84358E"/>
        </linearGradient>
        <linearGradient id="c" x1="16.669" x2="48.081" y1="48.346" y2="48.346" gradientUnits="userSpaceOnUse">
            <stop stop-color="#FA8733"/>
            <stop offset="1" stop-color="#F7C332"/>
        </linearGradient>
        <linearGradient id="d" x1="58.036" x2="117.095" y1="61.916" y2="61.916" gradientUnits="userSpaceOnUse">
            <stop stop-color="#00205B"/>
            <stop offset="1" stop-color="#84358E"/>
        </linearGradient>
        <linearGradient id="e" x1="55.178" x2="119.928" y1="64.75" y2="64.75" gradientUnits="userSpaceOnUse">
            <stop stop-color="#00205B"/>
            <stop offset="1" stop-color="#84358E"/>
        </linearGradient>
        <linearGradient id="f" x1="74.601" x2="100.027" y1="43.464" y2="43.464" gradientUnits="userSpaceOnUse">
            <stop stop-color="#FA8733"/>
            <stop offset="1" stop-color="#F7C332"/>
        </linearGradient>
        <linearGradient id="g" x1="110.575" x2="169.634" y1="61.916" y2="61.916" gradientUnits="userSpaceOnUse">
            <stop stop-color="#00205B"/>
            <stop offset="1" stop-color="#84358E"/>
        </linearGradient>
        <linearGradient id="h" x1="107.717" x2="172.467" y1="64.75" y2="64.75" gradientUnits="userSpaceOnUse">
            <stop stop-color="#00205B"/>
            <stop offset="1" stop-color="#84358E"/>
        </linearGradient>
    </defs>
</svg>
